<svg xmlns="http://www.w3.org/2000/svg" viewBox="0 0 24 24">
<path fill="#68B345" d="M20 15c0-4.97-8-15-8-15S4 10.03 4 15s3.582 9 8 9 8-4.03 8-9z"/>
<path fill="#9ACF87" d="M8.25 5.249C10.165 2.304 12 0 12 0v8.998l-3.75-3.75z"/>
<path fill="#85C662" d="M12 8.998v8.998l-6.96-6.96c.825-1.915 2.031-3.972 3.21-5.787L12 8.998z"/>
<path fill="#73B564" d="M12 24c-4.418 0-8-4.03-8-9 0-1.121.41-2.501 1.04-3.964l6.96 6.96V24z"/>
<path fill="#1DAA4C" d="M15.75 5.249C13.835 2.304 12 0 12 0v8.998l3.75-3.75z"/>
<path fill="#2F9E48" d="M12 8.998v8.998l6.96-6.96c-.825-1.915-2.031-3.972-3.21-5.787L12 8.998z"/>
<path fill="#2D9145" d="M12 24c4.418 0 8-4.03 8-9 0-1.121-.41-2.501-1.04-3.964L12 17.996V24z"/>
<path fill="#010101" d="M12 23.75c4.38 0 7.932-3.96 7.994-8.871.001.04.006.082.006.121 0 4.97-3.582 9-8 9s-8-4.03-8-9c0-.04.005-.081.006-.121.062 4.91 3.614 8.871 7.994 8.871z" opacity=".1"/>
<path fill="#FFF" d="M4.006 15.129c0-.043-.006-.085-.006-.129 0-4.97 8-15 8-15s8 10.03 8 15c0 .044-.005.086-.006.129C19.87 10.119 12 .25 12 .25s-7.87 9.87-7.994 14.879z" opacity=".2"/>
<linearGradient id="a" x1="5.76" x2="20.428" y1="9.463" y2="16.303" gradientUnits="userSpaceOnUse">
<stop offset="0" stop-color="#FFF" stop-opacity=".2"/>
<stop offset="1" stop-color="#FFF" stop-opacity="0"/>
</linearGradient>
<path fill="url(#a)" d="M20 15c0-4.97-8-15-8-15S4 10.03 4 15s3.582 9 8 9 8-4.03 8-9z"/>
</svg>